# Blender 4.2.0
# www.blender.org
mtllib wall.mtl
o Cube
v -1.000000 -1.000000 1.000000
v -1.000000 1.000000 1.000000
v -1.000000 -1.000000 -1.000000
v -1.000000 1.000000 -1.000000
v 1.000000 -1.000000 1.000000
v 1.000000 1.000000 1.000000
v 1.000000 -1.000000 -1.000000
v 1.000000 1.000000 -1.000000
vn -1.0000 -0.0000 -0.0000
vn -0.0000 -0.0000 -1.0000
vn 1.0000 -0.0000 -0.0000
vn -0.0000 -0.0000 1.0000
vn -0.0000 -1.0000 -0.0000
vn -0.0000 1.0000 -0.0000
vt 0.667668 0.001001
vt 0.998999 0.332332
vt 0.998999 0.001001
vt 0.001001 0.001001
vt 0.332332 0.332332
vt 0.332332 0.001001
vt 0.001001 0.334334
vt 0.332332 0.665666
vt 0.332332 0.334334
vt 0.334334 0.001001
vt 0.665666 0.332332
vt 0.665666 0.001001
vt 0.334334 0.334334
vt 0.665666 0.665666
vt 0.665666 0.334334
vt 0.001001 0.667668
vt 0.332332 0.998999
vt 0.332332 0.667668
vt 0.667668 0.332332
vt 0.001001 0.332332
vt 0.001001 0.665666
vt 0.334334 0.332332
vt 0.334334 0.665666
vt 0.001001 0.998999
s 0
usemtl Material.001
f 2/1/1 3/2/1 1/3/1
f 4/4/2 7/5/2 3/6/2
f 8/7/3 5/8/3 7/9/3
f 6/10/4 1/11/4 5/12/4
f 7/13/5 1/14/5 3/15/5
f 4/16/6 6/17/6 8/18/6
f 2/1/1 4/19/1 3/2/1
f 4/4/2 8/20/2 7/5/2
f 8/7/3 6/21/3 5/8/3
f 6/10/4 2/22/4 1/11/4
f 7/13/5 5/23/5 1/14/5
f 4/16/6 2/24/6 6/17/6
